<?xml version="1.0" encoding="utf-8"?>
<!-- Generator: Adobe Illustrator 25.0.1, SVG Export Plug-In . SVG Version: 6.00 Build 0)  -->
<svg version="1.1" id="Layer_1" xmlns="http://www.w3.org/2000/svg" xmlns:xlink="http://www.w3.org/1999/xlink" x="0px" y="0px"
	 viewBox="0 0 900 540.9" style="enable-background:new 0 0 900 540.9;" xml:space="preserve">
<style type="text/css">
	.st0{fill:#FFF100;}
	.st1{fill:#FBAE17;}
	.st2{fill:#FFFFFF;}
	.st3{fill:#EB008B;}
	.st4{fill:#00ADEE;}
</style>
<g>
	<g>
		<path d="M448.1,6l437.2,252.2L466.5,535L28.8,304.2L448.1,6 M447.8,0l-2.7,1.9L25.9,300l-6.7,4.8l7.3,3.9l437.7,230.8l2.7,1.4
			l2.5-1.7l418.8-276.8l6.9-4.5l-7.1-4.1L450.7,1.6L447.8,0L447.8,0z"/>
	</g>
	<g>
		<path class="st0" d="M612.7,101l-86.5-49.9c-23-7.4-47.6-11.4-73.1-11.4c-22.5,0-44.3,3.1-64.9,9L258,141.2
			c-27.1,38.7-43.1,85.8-43.1,136.6c0,59,21.4,112.9,56.9,154.5L428,514.7c8.3,0.9,16.6,1.3,25.1,1.3c17.2,0,33.9-1.8,50-5.3
			l144.6-95.6c27.4-38.8,43.6-86.2,43.6-137.3C691.4,207.7,661,144.6,612.7,101 M451.7,473c-106.3,0-192.6-86.2-192.6-192.5
			S345.4,88,451.7,88s192.6,86.2,192.6,192.5C644.3,386.8,558,473,451.7,473"/>
		<path class="st0" d="M451.7,126.9c-84.9,0-153.7,68.8-153.7,153.7s68.8,153.7,153.7,153.7s153.7-68.8,153.7-153.7
			S536.6,126.9,451.7,126.9 M451.7,390c-60.5,0-109.5-49-109.5-109.5S391.2,171,451.7,171s109.5,49,109.5,109.5S512.2,390,451.7,390
			"/>
		<path class="st0" d="M458.2,11.9L448.1,6l-8.5,6c4-0.2,8-0.3,12.1-0.3C453.9,11.8,456.1,11.8,458.2,11.9"/>
		<path class="st0" d="M451.7,219c-34,0-61.5,27.5-61.5,61.5s27.5,61.5,61.5,61.5s61.5-27.5,61.5-61.5
			C513.2,246.6,485.7,219,451.7,219"/>
		<path class="st0" d="M885.3,258.2l-24-13.9c0.8,9.5,1.3,19.1,1.5,28.8L885.3,258.2z"/>
		<path class="st0" d="M28.8,304.2l12.8,6.8c-0.4-5.1-0.7-10.2-0.8-15.3L28.8,304.2z"/>
		<path class="st0" d="M813.5,216.8l-37.9-21.9c7.2,27.3,11.1,56,11.1,85.6c0,15.2-1,30.2-3,44.9l33.7-22.3c0.6-8.8,1-17.7,1-26.7
			C818.3,256.1,816.7,236.2,813.5,216.8"/>
		<path class="st0" d="M720.5,280.5c0,35-6.7,68.4-18.9,99.1l38.7-25.6c6.6-24.5,10.1-50.3,10.1-76.9c0-38.3-7.3-75-20.5-108.6
			l-48.7-28.1C706.1,181.2,720.5,229.2,720.5,280.5"/>
		<path class="st0" d="M116.8,280.5c0-13.8,0.8-27.3,2.5-40.6l-29.4,20.9c-0.2,5.2-0.4,10.4-0.4,15.6c0,21.3,1.9,42.3,5.4,62.6
			l30.2,15.9C119.7,331,116.8,306.1,116.8,280.5"/>
		<path class="st0" d="M175.6,381.6l35.5,18.7c-18-36.1-28.1-76.7-28.1-119.7c0-35.1,6.7-68.7,19-99.4l-37,26.3
			c-5.4,22.4-8.3,45.7-8.3,69.8C156.7,313.9,163.4,349.1,175.6,381.6"/>
		<path class="st1" d="M451.7,88c-106.3,0-192.6,86.2-192.6,192.5S345.3,473,451.7,473c106.3,0,192.6-86.2,192.6-192.5
			C644.3,174.2,558,88,451.7,88 M451.7,434.2c-84.9,0-153.7-68.8-153.7-153.7s68.8-153.7,153.7-153.7s153.7,68.8,153.7,153.7
			S536.6,434.2,451.7,434.2"/>
		<path class="st1" d="M214.9,277.8c0-50.8,15.9-97.9,43.1-136.6l-56.1,39.9c-12.3,30.8-19,64.3-19,99.4c0,43,10.1,83.7,28.1,119.7
			l60.8,32.1C236.4,390.8,214.9,336.8,214.9,277.8"/>
		<path class="st1" d="M428,514.7l38.5,20.3l36.7-24.2c-16.1,3.4-32.9,5.3-50,5.3C444.7,516,436.3,515.6,428,514.7"/>
		<path class="st1" d="M691.4,277.8c0,51.1-16.1,98.5-43.6,137.3l53.8-35.6c12.2-30.7,18.9-64.1,18.9-99.1
			c0-51.3-14.4-99.3-39.4-140.1L612.7,101C661,144.6,691.4,207.7,691.4,277.8"/>
		<path class="st1" d="M453.2,39.7c25.5,0,50,4,73.1,11.4l-68-39.2c-2.2-0.1-4.3-0.1-6.5-0.1c-4.1,0-8.1,0.1-12.1,0.3l-51.4,36.5
			C408.9,42.8,430.6,39.7,453.2,39.7"/>
		<path class="st1" d="M156.7,277.2c0-24,2.9-47.4,8.3-69.8l-45.7,32.5c-1.6,13.3-2.5,26.9-2.5,40.6c0,25.6,2.9,50.5,8.3,74.4
			l50.5,26.6C163.4,349.1,156.7,313.9,156.7,277.2"/>
		<path class="st1" d="M750.4,277.2c0,26.6-3.5,52.4-10.1,76.9l43.3-28.6c2-14.7,3-29.7,3-44.9c0-29.6-3.9-58.3-11.1-85.6
			l-45.7-26.4C743.1,202.2,750.4,238.8,750.4,277.2"/>
		<path class="st1" d="M818.3,276.4c0,9-0.3,17.9-1,26.7l45.4-30c-0.2-9.7-0.7-19.3-1.5-28.8l-47.8-27.6
			C816.7,236.2,818.3,256.1,818.3,276.4"/>
		<path class="st1" d="M89.5,276.4c0-5.2,0.1-10.5,0.4-15.6l-49,34.9c0.2,5.1,0.5,10.2,0.8,15.3l53.2,28
			C91.4,318.7,89.5,297.8,89.5,276.4"/>
		<path class="st1" d="M451.7,171c-60.5,0-109.5,49-109.5,109.5S391.2,390,451.7,390s109.5-49,109.5-109.5
			C561.2,220.1,512.2,171,451.7,171 M451.7,342c-34,0-61.5-27.5-61.5-61.5s27.5-61.5,61.5-61.5s61.5,27.5,61.5,61.5
			S485.7,342,451.7,342"/>
		<path d="M242.1,281.4c5.3,6.3,12.2,6.3,13,6.2l0,0c18.2,0,24.8-15,25.9-23.2c0.5-2.7,0.8-5.3,0.8-7.7c0-5.9-1.5-10.8-4.6-14.5
			c-6.5-7.9-16.8-6.7-17.9-6.5c0.2,0,0.3,0,0.5,0c-7.5,0.3-12.8,3.7-16.4,8c2.3-10,4.1-18.4,5.2-24.4c1.9,0.1,3.5,0.4,4.1,1
			l-0.2-0.3c1.1,1.7,3.1,3.1,4.9,3c1.9-0.1,3.8-0.7,4.8-2.5l6-10.7c1.1-1.9,1.1-4.3,0.2-6.3s-2.8-3.2-4.8-3.3
			c-0.9,0-22.8-0.5-50.9,2.8c-2.6,0.3-4.6,2.5-4.9,5.4l-1,8.4c-0.2,2,0.4,4.1,1.8,5.4c1.3,1.4,3.2,1.9,5,1.5c3.7-0.9,7.7-1.9,11-2.7
			c-1.9,19.1-7.7,67.5-19.1,112c-7-30.4-19.6-83.5-27.8-106.6c4.6-0.8,7.7-2.5,7.7-7.2c0-0.2,0-0.4,0-0.6l-0.5-6.2
			c-0.1-1.7-0.9-3.3-2.1-4.3c-1.2-1.1-2.7-1.5-4.2-1.3c-26.6,4-58.3,7.3-63.2,5.6l0.3,0.2c-1.5-0.7-3.3-0.8-4.8-0.1
			s-2.7,2.1-3.2,3.8l-2,7.3c-0.2,0.6-0.3,1.3-0.3,1.9c0,1.3,0.3,2.5,1,3.5c1,1.6,2.5,2.6,4.3,2.6c0,0,4,0.2,7.5,0.4
			c8.8,39.4,12,52.6,13.2,57.1c-4,18.9-8.4,38.9-11.6,52.5c-11.1-35.3-27.7-87.4-34.9-107.9c10-1.8,11-2.8,12.1-4s1.6-2.8,1.6-4.4
			c0-1-0.2-1.9-0.6-2.8l-2.5-5.6c-1.2-2.6-3.8-4-6.3-3.3c-0.4,0.1-43.7,11.9-74.5,2.8c-2.8-0.8-5.8,0.9-6.7,4.1l-2.5,8.4
			c-0.9,3.2,0.5,6.7,3.3,7.8c0.8,0.3,6.6,2.6,13.2,2.5c6.4,20.8,34,104.1,65.9,171.6c0.6,1.3,1.6,2.3,2.9,2.9
			c0.5,0.2,12.4,5.4,24-0.7c1.2-0.6,2.2-1.7,2.7-3.1c0.6-1.5,13.8-34.5,24.8-84.2c9.1,26.3,24.9,70.1,31,78.3c0.9,1.2,2.2,2,3.6,2.2
			c7.2,1,20,1.9,25.1-2.3c1-0.8,1.7-2,2-3.3c1.2-4.4,20-76.5,33.1-130.8C237.9,274.5,239.5,278.4,242.1,281.4"/>
		<path d="M281,264.2c0,0.1,0,0.2-0.1,0.3c0,0.1,0,0.1,0,0.2C280.9,264.5,280.9,264.3,281,264.2"/>
		<path d="M415.5,383.5c0.6-1.6,0.5-3.4-0.1-4.9l-3.1-7.7c-1.1-2.8-3.8-4.2-6.4-3.5c0,0-0.6,0.2-0.7,0.2
			c-0.4-15.3-1.5-48.7-3.9-60.3c-1.9-13.9-12.2-38.8-37.2-35.8c-1.6,0-14.8,0.6-26.7,17.2c-0.1-0.7-0.3-1.4-0.3-1.7v0.3
			c-0.1-3.1-2.1-5.8-4.8-6.3c-1.3-0.2-13.9-1.8-46.6,7c-2.6,0.7-4.4,3.3-4.3,6.3v0.3c-0.8-0.6-1.8-0.9-2.8-1c-1.2,0-30.6-1.1-40.9,0
			c-1.7,0.2-3.3,1.3-4.2,2.9c-0.9,1.7-1.1,3.7-0.5,5.5l2.5,7.3c1,2.8,3.6,4.5,6.3,3.9c0,0,2.1-0.5,4.1-0.9c0.3,14.7,1.2,47.6,2.8,66
			c-0.6,0.1-1.3,0.1-1.8,0.1c-2.3-0.2-4.4,1.2-5.4,3.5s-0.7,5,0.9,6.9l4,5.1c1.2,1.5,3,2.3,4.8,2l39.6-4.8c2.9-0.3,5.1-3.1,5.1-6.2
			c0-0.1,0-0.2,0-0.3l-0.2-5.1c-0.1-2.8-2-5.1-4.4-5.7c-0.8-13.3-2.9-45.6-5.5-64.5c1.5,0.5,3.2,0.2,4.6-0.9c0,0,2.6-2,6.3-3.8
			c0,12.5,1,38.2,5.8,79.6c-0.4,0-0.8,0-1.1-0.1c-1.8-0.4-3.6,0.3-4.9,1.7c-1.3,1.4-1.9,3.4-1.6,5.4l0.6,4.5
			c0.4,3.1,2.9,5.4,5.7,5.3c48.1-1.9,51.3-8.1,52.7-10.7c0.5-1,0.8-2.1,0.8-3.2v-9c0-2.6-1.5-4.9-3.6-5.8c-1.2-0.5-2.6-0.4-3.8,0.1
			c-1-16-2.9-47.2-3.4-54.2c0.1-4.8,1.8-17.7,7.8-20c0.8,0.9,3.3,4.6,4.6,17.4c2.4,23.2,6.2,61.3,6.2,66.2c0,0.1,0,0.3,0,0.4
			c0,3.2,2.2,6.1,5.1,6.4c3.4,0.3,33.9,3.1,44.8-1.8C413.8,386.3,414.9,385.1,415.5,383.5 M373.7,383L373.7,383L373.7,383L373.7,383
			z"/>
		<path d="M528.5,409.3C528.5,409.4,528.5,409.4,528.5,409.3c0,0.2,0,0.3,0,0.3C528.5,409.5,528.5,409.4,528.5,409.3"/>
		<path d="M448.7,358.9h-0.1h-0.1C448.5,358.9,448.6,358.9,448.7,358.9"/>
		<path d="M484.5,343.4c0-0.1,0-0.1,0-0.2V343C484.5,343.2,484.5,343.3,484.5,343.4"/>
		<path d="M537.5,339.8L537.5,339.8v0.1C537.5,339.8,537.5,339.8,537.5,339.8"/>
		<path d="M780.6,175.4c0,10.6,7.8,34.7,9,38.1c6.7,23.5,7.2,40.9,7.2,41.1c0.1,2.3,1.2,4.4,3.1,5.4c3.9,2.2,9.5,0.7,11.6-0.1
			c2.1-0.7,3.6-2.7,3.9-5.1c2.2-18.2,7-36.6,7.3-37.8c12.2-33.4,12.9-50.8,12.9-54.7c0-0.3,0-0.4,0-0.5c0-22.6-15.5-29-23.6-29.2
			c-0.1,0-0.2,0-0.3,0c-8.7,0.3-15.9,3.7-21.2,10.1c-9.3,11.1-9.9,27.7-9.9,31.8C780.6,175,780.6,175.3,780.6,175.4L780.6,175.4z"/>
		<path d="M835.6,161.6c0,0,0,0.2,0,0.3v0.1C835.6,161.8,835.6,161.7,835.6,161.6"/>
		<path d="M809,261L809,261c0.1,0,0.1,0,0.2,0C809.2,261,809.1,261,809,261"/>
		<path d="M823.5,266.4c-6-5.8-13.2-5.5-14.3-5.4c-7.6,0.4-12.9,4-16.3,8.8c0.5-4.9,0.6-9.5,0.5-13.4c0-0.1,0-0.2,0-0.3
			c-4.7-60.9-38.9-61.1-40.4-61.1c-8.3,0.2-15.9,4.2-22.3,11.5c0-0.3-0.2-1.8-0.2-1.8c-0.1-1.7-0.9-3.2-2-4.3
			c-1.2-1.1-2.7-1.6-4.1-1.4c-6.1,0.8-34.2,4.4-46.4,9.2c-0.1-10.3-0.2-20.8-0.2-30.6c0-17.6,0.3-32.6,0.8-39.6c2.8-0.5,5.8-1,5.8-1
			c2.7-0.5,4.7-3.1,4.7-6.2v-4.4c0-1.9-0.8-3.7-2.1-4.9c-1.3-1.2-3-1.7-4.7-1.3c-7.4,1.7-28.7,5.3-39.1,0.7
			c-1.8-0.8-3.8-0.5-5.4,0.8c-1.5,1.3-2.4,3.4-2.2,5.6l0.8,9.3c0.3,3.4,2.9,5.9,5.9,5.7c0,0,4.5-0.3,8.5-0.5
			c1,10.8,10.5,116.2,10.5,116.2c0,0.1,0.3,3.4,0.3,8.2c0,8.8-1.1,22.6-7.4,30.8c-3.3,4.3-7.6,6.5-13.3,6.7c-0.2,0-0.6,0.1-0.8,0.1
			h0.2c-0.2,0-2,0.2-4.1-1.8c-2.2-2.1-6-8-6.9-23.8c-0.1-1.1-7.9-88.4-8.7-107c0-0.1,0-0.2,0-0.3c0-0.2-1.9-21.3,0.7-33.4
			c0.4-1.9,0-4-1.2-5.5s-2.9-2.3-4.6-2.2c-10.7,0.8-41,1.7-52.2-3.9c-1.8-0.9-4-0.7-5.6,0.7c-1.4,1.2-2.3,3.1-2.3,5
			c0,0.3,0,0.5,0,0.8l1.2,10.2c0.3,2.8,2.3,5,4.8,5.4c0,0,1.8,0.3,3.2,0.5c-1.3,8.8-3.4,25.8-3.4,47.6c0,11.3,0.5,23.9,2,37.2
			c0,0.1,0.2,1.8,0.6,4.6c-0.4-0.7-0.9-1.4-1.4-2c-4.8-6.1-12.4-9.4-22.6-10l0,0c-0.4,0-31.1-1.2-45.9,28.1c1-4.4,1.5-9.3,1.5-14.8
			c0,0,0-0.1,0-0.2c0-1.8-0.3-12-6.9-19.5c-4.4-5-10.3-7.5-17.6-7.5c-0.2,0-0.4,0-0.5,0c-7.4,0.8-21.5,7.5-21.5,27.5
			c0,0.9,0,9.7,5.7,16.2c2.6,2.9,7.3,6.4,15.1,6.4c0.9,0,1.9-0.1,2.9-0.3c-3,2.8-7.5,5.6-14.3,6.2c0.2,0,0.3,0,0.5,0
			c-1.6,0-3.5,0.6-5.2,1.9c-6.4-0.3-22.8,0.4-34.7,12.3c-8.5,8.5-12.8,20.8-12.8,36.6c0,1.1,0.5,22.2,16.5,33.5
			c-3.3,5.4-7.2,13.7-7.2,23c0,0.4,0,0.9,0,1.3c0.3,6.1,2.2,11.6,5.7,16.5c-5.7,6.8-15,20.4-15,37.8l0,0c0,0.7,0.5,42.8,58.5,47.6
			c1.3,0.1,28.1,1.3,46.7-18.6c11.3-12.1,17-29.1,17-50.5c0-0.1,0-0.3,0-0.6c0-3.5-0.7-17.6-10.7-29.5c-1.1-1.4-2.4-2.6-3.6-3.8
			c4.4,0.6,9.2,0.7,14.4,0.4c0.4,0,48.8-3,50.9-64.1c0,0,0-0.2,0-0.7c0-4.1-1.2-26.5-26.1-37.1c2.7-1,5.7-2.6,8.3-5.4
			c3.4-3.7,5.3-8.6,5.8-14.5c7.2,27.7,26.3,73.2,73,69.4c2.3,0.1,15.8,0,31.1-14.6c0.7,1.4,1.9,2.5,3.3,2.9c1.5,0.5,3.2,0.2,4.5-0.8
			l4.7-3.5c1.6-1.2,2.5-3.1,2.5-5.2c0-0.5,0-0.9-0.1-1.4c-0.1-0.4-6.5-33.1-8.2-70.9c0.7-0.2,1.3-0.4,1.9-0.8c0.1,0,4.2-3.1,10.1-6
			c0.3,15.9,1.2,49.4,3,69.6c0.3,2.7,6.1,58.6,9.1,81c-4.2,0.6-8.9,0.8-10.9-0.2c-2.2-1-4.6-0.3-6.2,1.6c-1.6,1.9-1.9,4.7-0.9,7
			l3.6,8c1.1,2.4,3.3,3.7,5.6,3.4c7-0.9,42.6-5.9,51.3-13.2c1.4-1.2,2.2-3,2.2-5c0-0.2,0-0.4,0-0.6c0,0-3.2-36-4.6-51.4
			c5.4,1.8,9.8,1.5,10,1.5c19.4-1.6,30.1-16.3,35.7-32.9c1,5.4,3.1,9.6,6.5,12.7c5.9,5.4,13,4.9,15,4.7c6.8,0.1,12.2-2.2,16-6.8
			c5.9-7.1,5.2-16.8,5.1-17.8C830.4,277,827.9,270.7,823.5,266.4 M463.1,460.5c-2.3-0.2-39.8-4.4-39.8-35.1c0-0.1,0-0.2,0-0.3
			c0-0.6,0.3-11.9,11.7-21.3c5.5,2.5,17.7,6.2,42.8,7c0.2,0,0.3,0,0.5,0c5.1-0.3,19.6,0.3,26,7.2c2.2,2.3,3.2,5.1,3.1,8.8
			c0,0.1-0.4,13.4-9.8,23.1C490,457.7,478.3,461.3,463.1,460.5 M433.5,357.1L433.5,357.1c0.3,0.2,0.6,0.4,0.9,0.5
			C434.1,357.5,433.8,357.3,433.5,357.1 M450.9,338.6c-1.2-2.9-3-9.2-4.2-22.2c0-0.1,0-0.3,0-0.4c-1-6.9-1.5-14.1-1.5-19.7
			c0-2.1,0.1-4,0.2-5.5c1.2,3.3,2.8,9.7,4.2,22.2c0,0.2,0,0.3,0.1,0.5c1.1,6.3,1.7,13.2,1.7,18.4C451.4,334.7,451.2,337,450.9,338.6
			 M446.4,287.8c0.4-0.2,0.8-0.3,1.2-0.6C447.1,287.5,446.7,287.7,446.4,287.8 M522.3,251.4L522.3,251.4c0-0.2,0-0.3,0-0.4
			C522.3,251.1,522.3,251.3,522.3,251.4c0,0.1,0,0.2,0,0.4c0,2.4,0.4,9.2,5.1,15.1c0,0,0,0,0.1,0.1c-3.1-1.3-6-3.1-7.6-5.4
			c-0.8-1.2-1.2-2.5-1.2-4c0-0.5,0-1,0.1-1.6c0.1-0.5,0.9-3.4,3.6-6.2c0,0.3-0.1,0.7-0.1,1C522.3,251,522.3,251.2,522.3,251.4
			 M531.7,322c-0.8-1-1.8-1.9-2.8-2.8c6,1,17.6,4.6,17.6,18.4c0,0.1,0,0.3,0,0.4s0,0.3,0,0.5c0,2.6-0.8,12.7-12.8,16.9
			c2.5-4.2,3.8-9.4,3.8-15.6c0-0.1,0-0.2,0-0.5C537.5,336.7,537.1,328.7,531.7,322 M508.8,313.6c-10,1.5-23.8,8.9-24.4,29.6
			c0,0.2,0,0.4,0,1c0,3.2,0.6,12.1,7,19.8c-5.4-1.3-11.3-1.9-17.8-2c-0.1,0-0.3,0-0.4,0c-9.3,0.7-23.7,0.1-30.7-2.9
			c1.8,0,3.8-0.1,6.1-0.3c13.9-0.9,39.8-12.3,39.9-49.2v-0.1l0,0c0-0.4,0-0.8,0-1.2c0-7.2-2.5-18.8-11.1-27.3
			c4.2-3,8.5-7.4,11.8-13.5c-0.6,2.3-1.1,4.7-1.5,7.2c0,0.2-0.3,2-0.3,4.8c0,4.8,0.9,12.6,5.6,20.1
			C496.6,305.5,502,310.2,508.8,313.6 M746.6,305.8c-0.3,0-1.6,0.2-1.8,0.2c0,0,0,0-0.1,0c-0.3,0-2-1.2-4.3-5.6
			c-0.3-2.5-2.4-23.7-2.4-23.7s-3.6-34.6-4.2-40.7c1.5-9.1,4-10.8,4.1-10.8c0.2,0,0.5-0.1,0.6-0.1c0.2-0.1,0.4-0.1,0.8,0.3
			c4.8,3.8,8.4,23.1,9.4,34.9c0,0.1,0,0.2,0,0.3c4.7,39.9-2.9,45.2-2.9,45.2H746.6z M640,323.6c0,0,0.3,0,0.5,0
			C640.4,323.6,640.2,323.6,640,323.6"/>
		<path class="st2" d="M247.7,266.8c5.3,6.3,12.2,6.3,13,6.2l0,0c18.2,0,24.8-15,25.9-23.2c0.5-2.7,0.8-5.3,0.8-7.7
			c0-5.9-1.5-10.8-4.6-14.5c-6.5-7.9-16.8-6.7-17.9-6.5c0.2,0,0.3,0,0.5,0c-7.5,0.3-12.8,3.7-16.4,8c2.3-10,4.1-18.4,5.2-24.4
			c1.9,0.1,3.5,0.4,4.1,1l-0.2-0.3c1.1,1.7,3.1,3.1,4.9,3c1.9-0.1,3.8-0.7,4.8-2.5l6-10.7c1.1-1.9,1.2-4.3,0.2-6.3s-2.8-3.2-4.8-3.3
			c-0.9,0-22.8-0.5-50.9,2.8c-2.6,0.3-4.6,2.5-4.9,5.4l-1,8.4c-0.2,2,0.4,4.1,1.8,5.4c1.3,1.4,3.2,1.9,5,1.5c3.7-0.9,7.7-1.9,11-2.7
			c-1.9,19.1-7.7,67.5-19.1,112c-7-30.4-19.6-83.5-27.8-106.6c4.6-0.8,7.7-2.5,7.7-7.2c0-0.2,0-0.4,0-0.6l-0.5-6.2
			c-0.1-1.7-0.9-3.3-2.1-4.3c-1.2-1.1-2.7-1.5-4.2-1.3c-26.6,4-58.3,7.3-63.2,5.6l0.3,0.2c-1.5-0.7-3.3-0.8-4.8-0.1s-2.7,2-3.2,3.8
			l-2,7.3c-0.2,0.6-0.3,1.3-0.3,1.9c0,1.3,0.3,2.5,1,3.5c1,1.6,2.5,2.6,4.3,2.6c0,0,4,0.2,7.5,0.4c8.8,39.4,12,52.6,13.2,57.1
			c-4,18.9-8.4,38.9-11.6,52.5c-11.1-35.3-27.7-87.4-34.9-107.9c10-1.8,11-2.8,12.1-4s1.6-2.8,1.6-4.4c0-0.9-0.2-1.9-0.6-2.8
			l-2.5-5.6c-1.2-2.6-3.8-4-6.3-3.3c-0.4,0.1-43.7,11.9-74.5,2.8c-2.8-0.8-5.8,1-6.7,4.1l-2.5,8.4c-1,3.2,0.5,6.7,3.3,7.8
			c0.8,0.3,6.6,2.6,13.2,2.5c6.6,20.3,34.2,103.6,66.1,171.1c0.6,1.3,1.6,2.3,2.9,2.9c0.5,0.2,12.4,5.4,24-0.7
			c1.2-0.6,2.1-1.7,2.7-3.1c0.6-1.5,13.8-34.5,24.8-84.2c9.1,26.3,24.9,70.1,31,78.3c0.9,1.2,2.2,2,3.6,2.2c7.2,0.9,20,1.9,25.1-2.3
			c1-0.8,1.7-2,2-3.2c1.1-4.4,20-76.5,33.1-130.8C243.5,259.9,245.1,263.8,247.7,266.8"/>
		<path class="st2" d="M286.6,249.6c0,0.1,0,0.2-0.1,0.3c0,0.1,0,0.1,0,0.2C286.5,249.9,286.5,249.7,286.6,249.6"/>
		<path class="st2" d="M421.1,368.9c0.6-1.6,0.5-3.4-0.1-4.9l-3.1-7.7c-1.1-2.8-3.8-4.2-6.4-3.5c0,0-0.6,0.2-0.7,0.2
			c-0.4-15.3-1.5-48.7-4-60.3c-1.9-13.9-12.1-38.8-37.2-35.8c-1.6,0-14.8,0.6-26.7,17.2c-0.1-0.7-0.3-1.4-0.3-1.7v0.3
			c-0.1-3.1-2.1-5.8-4.8-6.3c-1.3-0.2-13.9-1.8-46.6,7c-2.6,0.7-4.3,3.3-4.3,6.3v0.3c-0.8-0.6-1.8-0.9-2.8-1c-1.2,0-30.6-1.1-40.9,0
			c-1.7,0.2-3.3,1.3-4.2,2.9c-0.9,1.7-1.1,3.7-0.5,5.5l2.5,7.3c1,2.8,3.6,4.5,6.3,3.9c0,0,2.1-0.5,4.1-0.9c0.3,14.7,1.2,47.6,2.8,66
			c-0.6,0.1-1.3,0.1-1.8,0.1c-2.3-0.2-4.4,1.2-5.4,3.5s-0.7,5,0.9,6.9l4,5.1c1.2,1.5,3,2.3,4.8,2.1l39.6-4.8
			c2.9-0.3,5.1-3.1,5.1-6.2c0-0.1,0-0.2,0-0.3l-0.2-5.1c-0.1-2.8-2-5.1-4.4-5.7c-0.8-13.3-2.9-45.6-5.5-64.5
			c1.6,0.5,3.2,0.2,4.6-0.9c0,0,2.6-2,6.3-3.8c0,12.5,1,38.2,5.8,79.6c-0.4,0-0.8,0-1.1-0.1c-1.8-0.4-3.6,0.3-4.9,1.7
			c-1.3,1.4-1.9,3.4-1.6,5.4l0.6,4.5c0.4,3.1,2.9,5.4,5.7,5.3c48.1-1.9,51.3-8.1,52.7-10.7c0.5-1,0.8-2.1,0.8-3.2v-9
			c0-2.6-1.5-4.9-3.6-5.8c-1.2-0.5-2.6-0.4-3.8,0.1c-1-16-2.9-47.2-3.4-54.1c0.1-4.8,1.8-17.7,7.8-20c0.8,0.9,3.3,4.6,4.7,17.4
			c2.4,23.2,6.2,61.3,6.2,66.2c0,0.1,0,0.3,0,0.4c0,3.2,2.2,6.1,5.1,6.4c3.4,0.3,33.9,3.1,44.8-1.8
			C419.4,371.7,420.5,370.4,421.1,368.9 M331.5,272.6C331.5,272.6,331.5,272.7,331.5,272.6C331.5,272.7,331.5,272.7,331.5,272.6
			L331.5,272.6z M354.3,271.7C354.3,271.7,354.2,271.7,354.3,271.7c0.1-0.1,0.4-0.2,0.6-0.2C354.7,271.5,354.5,271.6,354.3,271.7
			 M379.3,368.4c0-0.1,0-0.3,0-0.5l0,0C379.3,368.1,379.3,368.2,379.3,368.4"/>
		<path class="st2" d="M534.1,394.7C534.1,394.8,534.1,394.8,534.1,394.7c0,0.2,0,0.3,0,0.3C534.1,394.9,534.1,394.8,534.1,394.7"/>
		<path class="st2" d="M454.3,344.2h-0.1h-0.1C454.1,344.3,454.2,344.3,454.3,344.2"/>
		<path class="st2" d="M543.1,325.3c0,0.1,0,0.1,0,0.2C543.1,325.4,543.1,325.4,543.1,325.3"/>
		<path class="st2" d="M490.1,328.8c0-0.1,0-0.1,0-0.2v-0.2C490.1,328.6,490.1,328.7,490.1,328.8"/>
		<path class="st2" d="M543.1,325.1C543.1,325.1,543.1,325.2,543.1,325.1c0,0.1,0,0.1,0,0.1S543.1,325.2,543.1,325.1"/>
		<path class="st2" d="M786.2,160.8c0,10.6,7.9,34.7,9,38.1c6.7,23.5,7.2,40.9,7.2,41.1c0.1,2.3,1.2,4.4,3.1,5.4
			c3.9,2.2,9.5,0.7,11.6-0.1c2.1-0.7,3.6-2.7,3.9-5.1c2.2-18.2,7-36.6,7.3-37.8c12.2-33.4,12.9-50.8,12.9-54.7c0-0.3,0-0.4,0-0.5
			c0-22.6-15.5-29-23.6-29.2c-0.1,0-0.2,0-0.3,0c-8.7,0.3-15.9,3.7-21.2,10.1c-9.3,11.1-9.9,27.7-9.9,31.8
			C786.2,160.4,786.2,160.7,786.2,160.8L786.2,160.8z"/>
		<path class="st2" d="M841.2,147c0,0,0,0.2,0,0.3v0.1C841.2,147.2,841.2,147.1,841.2,147"/>
		<path class="st2" d="M814.6,246.4L814.6,246.4L814.6,246.4C814.8,246.4,814.7,246.4,814.6,246.4"/>
		<path class="st2" d="M829.1,251.8c-6-5.8-13.2-5.5-14.3-5.4c-7.7,0.4-12.9,4-16.3,8.8c0.5-4.9,0.6-9.5,0.5-13.4c0-0.1,0-0.2,0-0.3
			c-4.7-60.9-38.9-61.1-40.4-61.1c-8.3,0.2-15.9,4.2-22.3,11.5c0-0.3-0.2-1.8-0.2-1.8c-0.1-1.7-0.9-3.2-2-4.3
			c-1.2-1.1-2.6-1.5-4.1-1.4c-6.1,0.7-34.2,4.4-46.4,9.2c-0.1-10.3-0.2-20.8-0.2-30.6c0-17.6,0.3-32.6,0.8-39.6c2.8-0.5,5.8-1,5.8-1
			c2.7-0.5,4.7-3.1,4.7-6.2v-4.4c0-1.9-0.8-3.7-2.1-4.9c-1.3-1.2-3-1.7-4.7-1.3c-7.4,1.7-28.7,5.3-39.1,0.7
			c-1.8-0.8-3.8-0.5-5.4,0.8c-1.5,1.3-2.4,3.4-2.2,5.6l0.8,9.3c0.3,3.4,2.9,5.9,5.9,5.7c0,0,4.5-0.3,8.5-0.5
			c1,10.8,10.5,116.2,10.5,116.2c0,0.1,0.3,3.4,0.3,8.2c0,8.8-1.1,22.6-7.4,30.8c-3.3,4.3-7.6,6.5-13.2,6.7c-0.2,0-0.6,0.1-0.8,0.1
			h0.2c-0.2,0-2,0.2-4.1-1.8c-2.2-2.1-6-8-6.9-23.8c-0.1-1.1-7.9-88.4-8.7-107c0-0.1,0-0.2,0-0.3c0-0.2-1.8-21.3,0.7-33.4
			c0.4-1.9,0-4-1.2-5.5s-2.9-2.3-4.6-2.2c-10.7,0.8-41,1.7-52.2-3.9c-1.8-0.9-4-0.7-5.6,0.7c-1.4,1.2-2.2,3.1-2.2,5
			c0,0.3,0,0.5,0,0.8l1.2,10.2c0.3,2.8,2.3,5,4.8,5.4c0,0,1.8,0.3,3.2,0.5c-1.3,8.8-3.4,25.8-3.4,47.6c0,11.3,0.5,23.9,2,37.2
			c0,0.1,0.2,1.8,0.6,4.6c-0.4-0.7-0.9-1.4-1.4-2c-4.8-6.1-12.4-9.4-22.6-10l0,0c-0.4,0-31.1-1.2-45.9,28.1c1-4.4,1.5-9.3,1.5-14.8
			v-0.2c0-1.8-0.3-12-6.9-19.5c-4.4-5-10.3-7.5-17.6-7.5c-0.2,0-0.4,0-0.5,0c-7.4,0.8-21.5,7.5-21.5,27.5c0,0.9,0,9.7,5.7,16.2
			c2.6,2.9,7.3,6.4,15.1,6.4c0.9,0,1.9-0.1,2.9-0.3c-3,2.8-7.5,5.6-14.3,6.2c0.2,0,0.3,0,0.5,0c-1.6,0-3.5,0.6-5.2,1.9
			c-6.4-0.3-22.8,0.4-34.7,12.3c-8.5,8.5-12.8,20.8-12.8,36.6c0,1.1,0.5,22.2,16.5,33.5c-3.3,5.4-7.2,13.7-7.2,23c0,0.4,0,0.9,0,1.3
			c0.3,6.1,2.2,11.6,5.7,16.5c-5.8,6.8-15,20.4-15,37.8l0,0c0,0.7,0.5,42.8,58.5,47.6c1.3,0.1,28.1,1.3,46.7-18.6
			c11.3-12.1,17-29.1,17-50.5c0-0.1,0-0.3,0-0.6c0-3.5-0.7-17.6-10.7-29.5c-1.1-1.4-2.4-2.6-3.6-3.8c4.4,0.6,9.1,0.7,14.4,0.4
			c0.4,0,48.8-3,50.9-64.1c0,0,0-0.2,0-0.7c0-4.1-1.2-26.5-26.1-37.1c2.7-1,5.7-2.6,8.3-5.4c3.4-3.7,5.3-8.6,5.8-14.5
			c7.2,27.7,26.3,73.1,73,69.4c2.3,0.1,15.8,0,31.1-14.6c0.7,1.4,1.9,2.5,3.3,2.9c1.5,0.5,3.2,0.2,4.5-0.8l4.7-3.5
			c1.6-1.2,2.5-3.1,2.5-5.2c0-0.5,0-0.9-0.1-1.4c-0.1-0.4-6.5-33.1-8.2-70.9c0.7-0.2,1.3-0.4,1.9-0.8c0.1,0,4.2-3.1,10.1-6
			c0.3,15.9,1.2,49.4,3,69.6c0.3,2.7,6.1,58.6,9,81c-4.2,0.6-8.9,0.8-10.9-0.2c-2.2-1-4.6-0.3-6.2,1.6c-1.6,1.9-1.9,4.7-0.9,7l3.6,8
			c1.1,2.4,3.3,3.7,5.6,3.4c7-0.9,42.6-5.9,51.3-13.2c1.4-1.2,2.2-3,2.2-5c0-0.2,0-0.4,0-0.6c0,0-3.2-36-4.6-51.4
			c5.4,1.8,9.8,1.5,10,1.5c19.4-1.6,30.1-16.3,35.7-32.9c1,5.4,3.1,9.6,6.5,12.7c5.9,5.4,13,4.9,15,4.7c6.8,0.1,12.2-2.2,16-6.8
			c5.9-7.1,5.2-16.8,5.1-17.8C836,262.3,833.5,256.1,829.1,251.8 M524.4,241.4c0.1-0.5,0.9-3.4,3.6-6.2c0,0.4-0.1,0.7-0.1,1
			c0,0.2,0,0.4,0,0.6l0,0c0-0.1,0-0.3,0-0.4c0,0.1,0,0.3,0,0.4c0,0.1,0,0.2,0,0.3c0,2.4,0.4,9.2,5.1,15.1c0,0,0,0,0.1,0.1
			c-3.1-1.3-6-3.1-7.6-5.4c-0.8-1.2-1.2-2.5-1.2-4C524.3,242.5,524.3,241.9,524.4,241.4 M455.2,298.4c0,0.2,0,0.3,0.1,0.5
			c1.1,6.3,1.7,13.1,1.7,18.4c0,2.8-0.2,5-0.5,6.6c-1.2-2.9-3-9.2-4.2-22.2c0-0.1,0-0.3,0-0.4c-1-6.9-1.5-14.1-1.5-19.7
			c0-2.1,0.1-4,0.2-5.5C452.2,279.5,453.9,285.8,455.2,298.4 M452,273.2c0.4-0.2,0.8-0.3,1.2-0.6C452.7,272.9,452.3,273.1,452,273.2
			 M440,343c-0.3-0.1-0.6-0.3-0.9-0.5l0,0C439.4,342.7,439.7,342.9,440,343 M503.2,435.1c-7.7,8-19.3,11.6-34.5,10.7
			c-2.3-0.2-39.8-4.4-39.8-35.1c0-0.1,0-0.2,0-0.3c0-0.6,0.3-11.9,11.7-21.3c5.5,2.5,17.7,6.2,42.8,7c0.2,0,0.3,0,0.5,0
			c5.1-0.3,19.6,0.3,26,7.2c2.2,2.3,3.2,5.1,3.1,8.8C513,412.1,512.6,425.4,503.2,435.1 M479.2,347.4c-0.1,0-0.3,0-0.4,0
			c-9.3,0.7-23.7,0.1-30.7-2.9c1.8,0,3.8-0.1,6.1-0.3C468,343.4,494,332,494.1,295v-0.1l0,0c0-0.4,0-0.8,0-1.2
			c0-7.2-2.5-18.8-11.1-27.3c4.2-3,8.5-7.4,11.8-13.5c-0.6,2.3-1.1,4.7-1.5,7.2c0,0.2-0.3,2-0.3,4.8c0,4.8,0.9,12.6,5.6,20.1
			c3.7,6,9.1,10.7,16,14.1c-10,1.5-23.8,8.9-24.4,29.6c0,0.2,0,0.4,0,1c0,3.2,0.6,12.1,7,19.8C491.6,348.1,485.7,347.4,479.2,347.4
			 M539.3,340.8c2.5-4.2,3.8-9.4,3.8-15.6c0-0.1,0-0.2,0-0.5c0-2.6-0.5-10.7-5.8-17.3c-0.8-1.1-1.8-1.9-2.8-2.8
			c6,1,17.6,4.6,17.6,18.4c0,0.1,0,0.3,0,0.4s0,0.3,0,0.5C552.1,326.5,551.3,336.5,539.3,340.8 M645.6,309c0,0,0.3,0,0.5,0
			C645.9,309,645.8,309,645.6,309 M752.2,291.1c-0.3,0-1.6,0.2-1.8,0.2l0,0c-0.3,0-2-1.2-4.3-5.6c-0.3-2.5-2.4-23.7-2.4-23.7
			s-3.6-34.6-4.2-40.7c1.5-9.1,4-10.8,4.1-10.8c0.2,0,0.5,0,0.6-0.1c0.2-0.1,0.4-0.1,0.8,0.3c4.8,3.8,8.4,23.1,9.3,34.9
			c0,0.1,0,0.2,0,0.3c4.7,39.9-2.9,45.2-2.9,45.2H752.2z"/>
		<path class="st3" d="M95.9,205.5c0,0-44.6,12.4-77.2,2.8l-2.5,8.4c0,0,8,3.4,15,1.7c0,0,30.6,97.3,67.2,174.9c0,0,10,4.5,19.6-0.6
			c0,0,17.1-42.2,28.6-102.9c0,0,28.6,84.9,36.6,95.6c0,0,17.1,2.2,21.1-1.1c0,0,41.1-157.5,45.1-185.6c0,0,11-1.7,13.5,3.9l6-10.7
			c0,0-22.1-0.6-50.2,2.8l-1,8.4c0,0,18.1-4.5,18.6-4.5c0,0-6.5,80.4-26.1,142.8c0,0-26.1-118.1-35.6-135c0,0,10.5-0.6,10.5-1.7
			l-0.5-6.2c0,0-59.7,9-66.2,5.1l-2,7.3c0,0,8.5,0.6,11.5,0.6c0,0,13.5,60.7,14.5,63c0,0-14.5,69.7-17.1,72.5
			c0,0-40.1-127.7-43.1-132.7c0,0,15-2.3,16.1-3.4L95.9,205.5z"/>
		<path class="st3" d="M265.5,227.4c0,0,20.1-2.8,15.5,21.4c0,0-2,18-20.6,18c0,0-14.5,0.6-12.5-22.5
			C247.9,244.3,250.4,228,265.5,227.4"/>
		<path class="st3" d="M284,285.3c0,0-30.1-1.1-40.1,0l2.5,7.3l10.5-2.2c0,0,1,58.5,3.5,78.7c0,0-4.7,1.4-8.3,1.1l4,5.1
			c0,0,34.7-4.3,39.7-4.8l-0.2-5.1l-4-0.3C291.6,365.2,287.8,299.1,284,285.3"/>
		<path class="st3" d="M337,272.7c0,0-11.9-1.9-44.5,6.9l0.2,9.3c0,0,6.9-5.3,15.2-7.5c0,0-1.7,28.7,6.4,94.1c0,0-5,1-8.4,0.3
			l0.6,4.5c0,0,45-1.7,48.1-7.7v-9c0,0-3.4,4.5-6.8,4.2c0,0-3.4-55.7-4-64c0,0,0.3-23,12.4-26.4c0,0,8.4-3.8,11.2,23
			c0,0,6.5,62.6,6.2,67.5c0,0,32.3,3.1,42.2-1.4l-3.1-7.7l-7.4,2.1c0,0-0.9-53.2-4-67.1c0,0-4.7-34.4-31.7-30.6
			c0,0-16.8-0.4-28.9,26.1C340.8,289.3,337,275.2,337,272.7"/>
		<path class="st3" d="M479.2,353.7c0,0-41,3.1-40.3-12.2c0,0,0.6-3.1,2.8-4.5c0,0,2.2,2.1,12.1,1c0,0,34.8-2.1,34.8-43.1
			c0,0,1.2-21.2-17.7-29.6c0,0,24.8-4.9,24.8-40.7c0,0,0.3-20.9-18.9-20.9c0,0-16.4,1.7-16.4,21.2c0,0-0.3,16.4,15.2,16.4
			c0,0,14.3,0,14.3-17.4c0,0,0.9-4.2-3.1-11.8c0,0,11.8,11.5,1.9,30.6c0,0-5.3,15.3-23.9,17.1c0,0-2.2,0-3.1,2.1
			c0,0-44.1-5.6-44.1,42.4c0,0,0.3,23.3,19.6,31.3c0,0-21.4,24.7-2.2,43.1c0,0-17.4,15.7-17.4,37.6c0,0-0.3,36.9,53.4,41.4
			c0,0,57.7,3.1,57.7-63C528.5,394.7,530.4,354,479.2,353.7 M450,267.4c0,0,7-5.2,10.7,30.3c0,0,6.1,33.4-3.7,34.4
			c0,0-7.4,3.1-10.2-29.7C446.8,302.3,441.6,266.3,450,267.4 M468.3,452.1c0,0-45.3-4.2-45-41.7c0,0-0.3-16.7,16.8-28.5
			c0,0,8.4,7,43.4,8c0,0,35.4-2.4,35.1,22.3C518.6,412.1,518,454.9,468.3,452.1"/>
		<path class="st3" d="M545.3,217.6c0,0-39.1-2.1-46.5,43.5c0,0-5.3,29.9,32.6,36.9c0,0,26.4,0.7,26.4,25c0,0,1.6,24-27.6,25.7
			c0,0-21.7,2.1-22.3-11.1c0,0,4,8,13,7c0,0,16.8,1,16.8-19.5c0,0,0.9-19.1-18.9-20.2c0,0-22.3-0.3-23,24c0,0-2.2,28.9,38.2,26.1
			c0,0,43.8-2.1,45.6-58.1c0,0,1.9-27.8-33.8-35.1c0,0-29.8-2.4-26.7-21.6c0,0,2.8-15.7,21.7-16.4c0,0-7.4,3.8-7.1,12.9
			c0,0-0.9,16.7,18,17.7c0,0,16.4,0.7,16.1-18.8C567.6,235.7,568.6,219,545.3,217.6"/>
		<path class="st4" d="M621.6,121.6c0,0-39.9,3.1-54.9-4.4l1.2,10.2l9.1,1.3c0,0-7.9,39.4-2.4,89.4c0,0,9.1,89.9,71.5,84.6
			c0,0,15.8,1.3,32.8-18.6l3.2,7.1l4.7-3.5c0,0-8.7-43.4-8.7-89c0,0-1.2-71.3,1.2-80.6l9.9-1.8v-4.4c0,0-28,6.6-42.3,0.4l0.8,9.3
			l13.8-0.9l11.1,122.2c0,0,5.5,51.4-25.7,52.7c0,0-15.4,3.1-17.4-31.4c0,0-7.9-88.1-8.7-107.2C620.8,157,618.8,134.9,621.6,121.6"
			/>
		<path class="st4" d="M793.4,242.1c-4.3-55.8-34.8-55.3-34.8-55.3c-14.4,0.3-22.7,14.3-26.5,22.6l-1.6-18.6c0,0-39.5,4.9-47.8,10.2
			v8.4c0,0,8.3-6.2,18.6-9.7c0,0,0.8,51.4,3.2,77.9c0,0,7.5,71.7,9.9,86.8c0,0-13.4,3.1-19.4,0.4l3.6,8c0,0,40.7-5.3,48.6-12
			c0,0-2.8-33-5.6-62.8c7.1,6.8,16.3,6.1,16.3,6.1C795.3,300.9,793.4,242.1,793.4,242.1 M751.9,297.4c-4.5,1.4-8.4-3.6-11.3-9.5
			c-0.9-9.6-1.8-18.5-2.5-25l-4.3-41.7c2.6-17.1,9.1-16.7,9.1-16.7c13.4-3.5,17,40.7,17,40.7C766.1,298.3,751.9,297.4,751.9,297.4"
			/>
		<path class="st3" d="M815.5,239.4c0,0-5.1,1.8-7.5,0.4c0,0-0.4-18.2-7.5-43c0,0-8.7-26.1-8.7-36.3c0,0-1.2-35.4,25.7-36.3
			c0,0,18.2,0.4,18.2,23c0,0,0.8,16.4-12.6,53.1C823,200.4,817.8,219.9,815.5,239.4"/>
		<path class="st3" d="M815.1,252.7c0,0,14.6-1.3,15.8,18.2c0,0,1.6,18.2-15.8,17.7c0,0-15.4,2.7-16.2-16.4
			C798.9,272.2,798.5,253.6,815.1,252.7"/>
	</g>
</g>
<g>
	<path d="M728.1,78.8c0-3.3,0.6-6.4,1.9-9.4c1.3-2.9,3-5.5,5.2-7.6c2.2-2.2,4.7-3.9,7.6-5.2c2.9-1.3,6-1.9,9.4-1.9
		c3.3,0,6.4,0.6,9.4,1.9c2.9,1.3,5.5,3,7.6,5.2c2.2,2.2,3.9,4.7,5.2,7.6c1.3,2.9,1.9,6,1.9,9.4s-0.6,6.4-1.9,9.4
		c-1.3,2.9-3,5.5-5.2,7.6c-2.2,2.2-4.7,3.9-7.6,5.2c-2.9,1.3-6,1.9-9.4,1.9c-3.3,0-6.4-0.6-9.4-1.9c-2.9-1.3-5.5-3-7.6-5.2
		c-2.2-2.2-3.9-4.7-5.2-7.6C728.8,85.2,728.1,82.1,728.1,78.8z M732.4,78.8c0,2.7,0.5,5.3,1.6,7.7c1,2.4,2.5,4.5,4.2,6.3
		c1.8,1.8,3.9,3.2,6.3,4.2s5,1.6,7.7,1.6c2.7,0,5.3-0.5,7.7-1.6s4.5-2.5,6.3-4.2c1.8-1.8,3.2-3.9,4.2-6.3c1-2.4,1.6-5,1.6-7.7
		c0-2.7-0.5-5.3-1.6-7.7c-1-2.4-2.5-4.5-4.2-6.3c-1.8-1.8-3.9-3.2-6.3-4.2s-5-1.6-7.7-1.6c-2.7,0-5.3,0.5-7.7,1.6s-4.5,2.5-6.3,4.2
		c-1.8,1.8-3.2,3.9-4.2,6.3C732.9,73.5,732.4,76.1,732.4,78.8z M743,64.9h10.6c3.3,0,5.8,0.7,7.4,2.1c1.6,1.4,2.4,3.5,2.4,6.2
		c0,2.4-0.6,4.2-1.9,5.4c-1.2,1.2-2.8,1.9-4.7,2.1l7.1,11.7h-5.3l-6.9-11.3H748v11.3H743V64.9z M748,76.8h3.7c0.8,0,1.6,0,2.3-0.1
		c0.8-0.1,1.5-0.2,2.1-0.5c0.6-0.3,1.1-0.6,1.5-1.2s0.6-1.2,0.6-2.1c0-0.9-0.2-1.6-0.6-2.1s-0.9-0.9-1.5-1.2
		c-0.6-0.3-1.3-0.4-2.1-0.5c-0.8,0-1.6-0.1-2.3-0.1H748V76.8z"/>
</g>
</svg>
